# This file uses centimeters as units for non-parametric coordinates.

v -17.097570 -0.000000 15.733459
v 16.746592 -0.000000 15.733459
v 16.746592 0.000000 -15.576451
v -17.097570 0.000000 -15.576451
v 16.746592 -0.000000 0.078504
v -17.097570 -0.000000 0.078504
v -0.175489 -0.000000 15.733459
v -0.175489 -0.000000 0.078504
v -0.175489 -0.000000 9.471478
v -17.097570 -0.000000 9.471478
v -10.328737 -0.000000 15.733459
v -10.328737 -0.000000 9.471478
v -10.328737 -0.000000 12.602468
v -17.097570 -0.000000 12.602468
v -13.713154 -0.000000 15.733459
v -13.713154 -0.000000 12.602468
v -13.713154 -0.000000 9.471478
v -6.944321 -0.000000 15.733459
v -6.944321 -0.000000 9.471478
v -6.944321 -0.000000 12.602468
v -0.175489 -0.000000 12.602468
v -3.559905 -0.000000 15.733459
v -3.559905 -0.000000 12.602468
v -3.559905 -0.000000 9.471478
v -10.328737 -0.000000 0.078504
v -17.097570 -0.000000 6.340487
v -10.328737 -0.000000 6.340487
v -13.713154 -0.000000 6.340487
v -17.097570 -0.000000 3.209496
v -10.328737 -0.000000 3.209496
v -13.713154 -0.000000 3.209496
v -13.713154 -0.000000 0.078504
v -0.175489 -0.000000 6.340487
v -6.944321 -0.000000 6.340487
v -3.559905 -0.000000 6.340487
v -6.944321 -0.000000 0.078504
v -6.944321 -0.000000 3.209496
v -0.175489 -0.000000 3.209496
v -3.559905 -0.000000 3.209496
v -3.559905 -0.000000 0.078504
v 16.746592 -0.000000 9.471478
v 6.593343 -0.000000 15.733459
v 6.593343 -0.000000 9.471478
v 6.593343 -0.000000 12.602468
v 3.208927 -0.000000 15.733459
v 3.208927 -0.000000 12.602468
v 3.208927 -0.000000 9.471478
v 9.977759 -0.000000 15.733459
v 9.977759 -0.000000 9.471478
v 9.977759 -0.000000 12.602468
v 16.746592 -0.000000 12.602468
v 13.362175 -0.000000 15.733459
v 13.362175 -0.000000 12.602468
v 13.362175 -0.000000 9.471478
v 6.593343 -0.000000 0.078504
v 6.593343 -0.000000 6.340487
v 3.208927 -0.000000 6.340487
v 6.593343 -0.000000 3.209496
v 3.208927 -0.000000 3.209496
v 3.208927 -0.000000 0.078504
v 16.746592 -0.000000 6.340487
v 9.977759 -0.000000 6.340487
v 13.362175 -0.000000 6.340487
v 9.977759 -0.000000 0.078504
v 9.977759 -0.000000 3.209496
v 16.746592 -0.000000 3.209496
v 13.362175 -0.000000 3.209496
v 13.362175 -0.000000 0.078504
v -0.175489 0.000000 -15.576451
v -17.097570 0.000000 -6.183478
v -0.175489 0.000000 -6.183478
v -10.328737 0.000000 -6.183478
v -17.097570 0.000000 -3.052487
v -10.328737 0.000000 -3.052487
v -13.713154 0.000000 -3.052487
v -13.713154 0.000000 -6.183478
v -6.944321 0.000000 -6.183478
v -6.944321 0.000000 -3.052487
v -0.175489 0.000000 -3.052487
v -3.559905 0.000000 -3.052487
v -3.559905 0.000000 -6.183478
v -10.328737 0.000000 -15.576451
v -17.097570 0.000000 -9.314468
v -10.328737 0.000000 -9.314468
v -13.713154 0.000000 -9.314468
v -17.097570 0.000000 -12.445459
v -10.328737 0.000000 -12.445459
v -13.713154 0.000000 -12.445459
v -13.713154 0.000000 -15.576451
v -0.175489 0.000000 -9.314468
v -6.944321 0.000000 -9.314468
v -3.559905 0.000000 -9.314468
v -6.944321 0.000000 -15.576451
v -6.944321 0.000000 -12.445459
v -0.175489 0.000000 -12.445459
v -3.559905 0.000000 -12.445459
v -3.559905 0.000000 -15.576451
v 16.746592 0.000000 -6.183478
v 6.593343 0.000000 -6.183478
v 6.593343 0.000000 -3.052487
v 3.208927 0.000000 -3.052487
v 3.208927 0.000000 -6.183478
v 9.977759 0.000000 -6.183478
v 9.977759 0.000000 -3.052487
v 16.746592 0.000000 -3.052487
v 13.362175 0.000000 -3.052487
v 13.362175 0.000000 -6.183478
v 6.593343 0.000000 -15.576451
v 6.593343 0.000000 -9.314468
v 3.208927 0.000000 -9.314468
v 6.593343 0.000000 -12.445459
v 3.208927 0.000000 -12.445459
v 3.208927 0.000000 -15.576451
v 16.746592 0.000000 -9.314468
v 9.977759 0.000000 -9.314468
v 13.362175 0.000000 -9.314468
v 9.977759 0.000000 -15.576451
v 9.977759 0.000000 -12.445459
v 16.746592 0.000000 -12.445459
v 13.362175 0.000000 -12.445459
v 13.362175 0.000000 -15.576451
vt 0.000000 0.000000
vt 1.000000 0.000000
vt 1.000000 1.000000
vt 0.000000 1.000000
vt 1.000000 0.500000
vt 0.000000 0.500000
vt 0.500000 0.000000
vt 0.500000 0.500000
vt 0.500000 0.200000
vt 0.000000 0.200000
vt 0.200000 0.000000
vt 0.200000 0.200000
vt 0.200000 0.100000
vt 0.000000 0.100000
vt 0.100000 0.000000
vt 0.100000 0.100000
vt 0.100000 0.200000
vt 0.300000 0.000000
vt 0.300000 0.200000
vt 0.300000 0.100000
vt 0.500000 0.100000
vt 0.400000 0.000000
vt 0.400000 0.100000
vt 0.400000 0.200000
vt 0.200000 0.500000
vt 0.000000 0.300000
vt 0.200000 0.300000
vt 0.100000 0.300000
vt 0.000000 0.400000
vt 0.200000 0.400000
vt 0.100000 0.400000
vt 0.100000 0.500000
vt 0.500000 0.300000
vt 0.300000 0.300000
vt 0.400000 0.300000
vt 0.300000 0.500000
vt 0.300000 0.400000
vt 0.500000 0.400000
vt 0.400000 0.400000
vt 0.400000 0.500000
vt 1.000000 0.200000
vt 0.700000 0.000000
vt 0.700000 0.200000
vt 0.700000 0.100000
vt 0.600000 0.000000
vt 0.600000 0.100000
vt 0.600000 0.200000
vt 0.800000 0.000000
vt 0.800000 0.200000
vt 0.800000 0.100000
vt 1.000000 0.100000
vt 0.900000 0.000000
vt 0.900000 0.100000
vt 0.900000 0.200000
vt 0.700000 0.500000
vt 0.700000 0.300000
vt 0.600000 0.300000
vt 0.700000 0.400000
vt 0.600000 0.400000
vt 0.600000 0.500000
vt 1.000000 0.300000
vt 0.800000 0.300000
vt 0.900000 0.300000
vt 0.800000 0.500000
vt 0.800000 0.400000
vt 1.000000 0.400000
vt 0.900000 0.400000
vt 0.900000 0.500000
vt 0.500000 1.000000
vt 0.000000 0.700000
vt 0.500000 0.700000
vt 0.200000 0.700000
vt 0.000000 0.600000
vt 0.200000 0.600000
vt 0.100000 0.600000
vt 0.100000 0.700000
vt 0.300000 0.700000
vt 0.300000 0.600000
vt 0.500000 0.600000
vt 0.400000 0.600000
vt 0.400000 0.700000
vt 0.200000 1.000000
vt 0.000000 0.800000
vt 0.200000 0.800000
vt 0.100000 0.800000
vt 0.000000 0.900000
vt 0.200000 0.900000
vt 0.100000 0.900000
vt 0.100000 1.000000
vt 0.500000 0.800000
vt 0.300000 0.800000
vt 0.400000 0.800000
vt 0.300000 1.000000
vt 0.300000 0.900000
vt 0.500000 0.900000
vt 0.400000 0.900000
vt 0.400000 1.000000
vt 1.000000 0.700000
vt 0.700000 0.700000
vt 0.700000 0.600000
vt 0.600000 0.600000
vt 0.600000 0.700000
vt 0.800000 0.700000
vt 0.800000 0.600000
vt 1.000000 0.600000
vt 0.900000 0.600000
vt 0.900000 0.700000
vt 0.700000 1.000000
vt 0.700000 0.800000
vt 0.600000 0.800000
vt 0.700000 0.900000
vt 0.600000 0.900000
vt 0.600000 1.000000
vt 1.000000 0.800000
vt 0.800000 0.800000
vt 0.900000 0.800000
vt 0.800000 1.000000
vt 0.800000 0.900000
vt 1.000000 0.900000
vt 0.900000 0.900000
vt 0.900000 1.000000
vn 0.000000 1.000000 0.000000
vn 0.000000 1.000000 0.000000
vn 0.000000 1.000000 0.000000
vn 0.000000 1.000000 0.000000
vn 0.000000 1.000000 0.000000
vn 0.000000 1.000000 0.000000
vn 0.000000 1.000000 0.000000
vn 0.000000 1.000000 0.000000
vn 0.000000 1.000000 0.000000
vn 0.000000 1.000000 0.000000
vn 0.000000 1.000000 0.000000
vn 0.000000 1.000000 0.000000
vn 0.000000 1.000000 0.000000
vn 0.000000 1.000000 0.000000
vn 0.000000 1.000000 0.000000
vn 0.000000 1.000000 0.000000
vn 0.000000 1.000000 0.000000
vn 0.000000 1.000000 0.000000
vn 0.000000 1.000000 0.000000
vn 0.000000 1.000000 0.000000
vn 0.000000 1.000000 0.000000
vn 0.000000 1.000000 0.000000
vn 0.000000 1.000000 0.000000
vn 0.000000 1.000000 0.000000
vn 0.000000 1.000000 0.000000
vn 0.000000 1.000000 0.000000
vn 0.000000 1.000000 0.000000
vn 0.000000 1.000000 0.000000
vn 0.000000 1.000000 0.000000
vn 0.000000 1.000000 0.000000
vn 0.000000 1.000000 0.000000
vn 0.000000 1.000000 0.000000
vn 0.000000 1.000000 0.000000
vn 0.000000 1.000000 0.000000
vn 0.000000 1.000000 0.000000
vn 0.000000 1.000000 0.000000
vn 0.000000 1.000000 0.000000
vn 0.000000 1.000000 0.000000
vn 0.000000 1.000000 0.000000
vn 0.000000 1.000000 0.000000
vn 0.000000 1.000000 0.000000
vn 0.000000 1.000000 0.000000
vn 0.000000 1.000000 0.000000
vn 0.000000 1.000000 0.000000
vn 0.000000 1.000000 0.000000
vn 0.000000 1.000000 0.000000
vn 0.000000 1.000000 0.000000
vn 0.000000 1.000000 0.000000
vn 0.000000 1.000000 0.000000
vn 0.000000 1.000000 0.000000
vn 0.000000 1.000000 0.000000
vn 0.000000 1.000000 0.000000
vn 0.000000 1.000000 0.000000
vn 0.000000 1.000000 0.000000
vn 0.000000 1.000000 0.000000
vn 0.000000 1.000000 0.000000
vn 0.000000 1.000000 0.000000
vn 0.000000 1.000000 0.000000
vn 0.000000 1.000000 0.000000
vn 0.000000 1.000000 0.000000
vn 0.000000 1.000000 0.000000
vn 0.000000 1.000000 0.000000
vn 0.000000 1.000000 0.000000
vn 0.000000 1.000000 0.000000
vn 0.000000 1.000000 0.000000
vn 0.000000 1.000000 0.000000
vn 0.000000 1.000000 0.000000
vn 0.000000 1.000000 0.000000
vn 0.000000 1.000000 0.000000
vn 0.000000 1.000000 0.000000
vn 0.000000 1.000000 0.000000
vn 0.000000 1.000000 0.000000
vn 0.000000 1.000000 0.000000
vn 0.000000 1.000000 0.000000
vn 0.000000 1.000000 0.000000
vn 0.000000 1.000000 0.000000
vn 0.000000 1.000000 0.000000
vn 0.000000 1.000000 0.000000
vn 0.000000 1.000000 0.000000
vn 0.000000 1.000000 0.000000
vn 0.000000 1.000000 0.000000
vn 0.000000 1.000000 0.000000
vn 0.000000 1.000000 0.000000
vn 0.000000 1.000000 0.000000
vn 0.000000 1.000000 0.000000
vn 0.000000 1.000000 0.000000
vn 0.000000 1.000000 0.000000
vn 0.000000 1.000000 0.000000
vn 0.000000 1.000000 0.000000
vn 0.000000 1.000000 0.000000
vn 0.000000 1.000000 0.000000
vn 0.000000 1.000000 0.000000
vn 0.000000 1.000000 0.000000
vn 0.000000 1.000000 0.000000
vn 0.000000 1.000000 0.000000
vn 0.000000 1.000000 0.000000
vn 0.000000 1.000000 0.000000
vn 0.000000 1.000000 0.000000
vn 0.000000 1.000000 0.000000
vn 0.000000 1.000000 0.000000
vn 0.000000 1.000000 0.000000
vn 0.000000 1.000000 0.000000
vn 0.000000 1.000000 0.000000
vn 0.000000 1.000000 0.000000
vn 0.000000 1.000000 0.000000
vn 0.000000 1.000000 0.000000
vn 0.000000 1.000000 0.000000
vn 0.000000 1.000000 0.000000
vn 0.000000 1.000000 0.000000
vn 0.000000 1.000000 0.000000
vn 0.000000 1.000000 0.000000
vn 0.000000 1.000000 0.000000
vn 0.000000 1.000000 0.000000
vn 0.000000 1.000000 0.000000
vn 0.000000 1.000000 0.000000
vn 0.000000 1.000000 0.000000
vn 0.000000 1.000000 0.000000
vn 0.000000 1.000000 0.000000
vn 0.000000 1.000000 0.000000
vn 0.000000 1.000000 0.000000
vn 0.000000 1.000000 0.000000
f 119/119/1 3/3/2 120/120/3
f 66/66/4 5/5/5 67/67/6
f 38/38/7 8/8/8 39/39/9
f 21/21/10 9/9/11 23/23/12
f 13/13/13 12/12/14 16/16/15
f 15/15/16 11/11/17 13/13/13
f 1/1/18 15/15/16 16/16/15
f 14/14/19 16/16/15 17/17/20
f 20/20/21 19/19/22 13/13/13
f 11/11/17 18/18/23 20/20/21
f 22/22/24 7/7/25 21/21/10
f 18/18/23 22/22/24 23/23/12
f 20/20/21 23/23/12 24/24/26
f 31/31/27 30/30/28 25/25/29
f 17/17/20 12/12/14 27/27/30
f 10/10/31 17/17/20 28/28/32
f 28/28/32 27/27/30 30/30/28
f 26/26/33 28/28/32 31/31/27
f 29/29/34 31/31/27 32/32/35
f 9/9/11 33/33/36 24/24/26
f 12/12/14 19/19/22 34/34/37
f 19/19/22 24/24/26 35/35/38
f 30/30/28 37/37/39 36/36/40
f 27/27/30 34/34/37 37/37/39
f 33/33/36 38/38/7 35/35/38
f 34/34/37 35/35/38 39/39/9
f 37/37/39 39/39/9 40/40/41
f 51/51/42 41/41/43 53/53/44
f 44/44/45 43/43/46 46/46/47
f 45/45/48 42/42/49 44/44/45
f 7/7/25 45/45/48 46/46/47
f 21/21/10 46/46/47 47/47/50
f 50/50/51 49/49/52 44/44/45
f 42/42/49 48/48/53 50/50/51
f 52/52/54 2/2/55 51/51/42
f 48/48/53 52/52/54 53/53/44
f 50/50/51 53/53/44 54/54/56
f 59/59/57 58/58/58 55/55/59
f 47/47/50 43/43/46 56/56/60
f 9/9/11 47/47/50 57/57/61
f 57/57/61 56/56/60 58/58/58
f 33/33/36 57/57/61 59/59/57
f 38/38/7 59/59/57 60/60/62
f 41/41/43 61/61/63 54/54/56
f 43/43/46 49/49/52 62/62/64
f 49/49/52 54/54/56 63/63/65
f 58/58/58 65/65/66 64/64/67
f 56/56/60 62/62/64 65/65/66
f 61/61/63 66/66/4 63/63/65
f 62/62/64 63/63/65 67/67/6
f 65/65/66 67/67/6 68/68/68
f 96/96/69 95/95/70 69/69/71
f 79/79/72 71/71/73 80/80/74
f 75/75/75 74/74/76 72/72/77
f 32/32/35 25/25/29 74/74/76
f 6/6/78 32/32/35 75/75/75
f 73/73/79 75/75/75 76/76/80
f 78/78/81 77/77/82 74/74/76
f 25/25/29 36/36/40 78/78/81
f 40/40/41 8/8/8 79/79/72
f 36/36/40 40/40/41 80/80/74
f 78/78/81 80/80/74 81/81/83
f 88/88/84 87/87/85 82/82/86
f 76/76/80 72/72/77 84/84/87
f 70/70/88 76/76/80 85/85/89
f 85/85/89 84/84/87 87/87/85
f 83/83/90 85/85/89 88/88/84
f 86/86/91 88/88/84 89/89/92
f 81/81/83 71/71/73 90/90/93
f 72/72/77 77/77/82 91/91/94
f 77/77/82 81/81/83 92/92/95
f 87/87/85 94/94/96 93/93/97
f 84/84/87 91/91/94 94/94/96
f 92/92/95 90/90/93 95/95/70
f 91/91/94 92/92/95 96/96/69
f 94/94/96 96/96/69 97/97/98
f 105/105/99 98/98/100 106/106/101
f 101/101/102 100/100/103 99/99/104
f 60/60/62 55/55/59 100/100/103
f 8/8/8 60/60/62 101/101/102
f 79/79/72 101/101/102 102/102/105
f 100/100/103 104/104/106 103/103/107
f 55/55/59 64/64/67 104/104/106
f 5/5/5 105/105/99 68/68/68
f 64/64/67 68/68/68 106/106/101
f 104/104/106 106/106/101 107/107/108
f 112/112/109 111/111/110 108/108/111
f 102/102/105 99/99/104 109/109/112
f 71/71/73 102/102/105 110/110/113
f 110/110/113 109/109/112 111/111/110
f 90/90/93 110/110/113 112/112/109
f 95/95/70 112/112/109 113/113/114
f 98/98/100 114/114/115 107/107/108
f 99/99/104 103/103/107 115/115/116
f 103/103/107 107/107/108 116/116/117
f 111/111/110 118/118/118 117/117/119
f 109/109/112 115/115/116 118/118/118
f 114/114/115 119/119/1 116/116/117
f 115/115/116 116/116/117 120/120/3
f 118/118/118 120/120/3 121/121/120
f 3/3/2 121/121/120 120/120/3
f 5/5/5 68/68/68 67/67/6
f 8/8/8 40/40/41 39/39/9
f 9/9/11 24/24/26 23/23/12
f 12/12/14 17/17/20 16/16/15
f 13/13/13 16/16/15 15/15/16
f 16/16/15 14/14/19 1/1/18
f 17/17/20 10/10/31 14/14/19
f 19/19/22 12/12/14 13/13/13
f 20/20/21 13/13/13 11/11/17
f 21/21/10 23/23/12 22/22/24
f 23/23/12 20/20/21 18/18/23
f 24/24/26 19/19/22 20/20/21
f 25/25/29 32/32/35 31/31/27
f 27/27/30 28/28/32 17/17/20
f 28/28/32 26/26/33 10/10/31
f 30/30/28 31/31/27 28/28/32
f 31/31/27 29/29/34 26/26/33
f 32/32/35 6/6/78 29/29/34
f 33/33/36 35/35/38 24/24/26
f 34/34/37 27/27/30 12/12/14
f 35/35/38 34/34/37 19/19/22
f 36/36/40 25/25/29 30/30/28
f 37/37/39 30/30/28 27/27/30
f 38/38/7 39/39/9 35/35/38
f 39/39/9 37/37/39 34/34/37
f 40/40/41 36/36/40 37/37/39
f 41/41/43 54/54/56 53/53/44
f 43/43/46 47/47/50 46/46/47
f 44/44/45 46/46/47 45/45/48
f 46/46/47 21/21/10 7/7/25
f 47/47/50 9/9/11 21/21/10
f 49/49/52 43/43/46 44/44/45
f 50/50/51 44/44/45 42/42/49
f 51/51/42 53/53/44 52/52/54
f 53/53/44 50/50/51 48/48/53
f 54/54/56 49/49/52 50/50/51
f 55/55/59 60/60/62 59/59/57
f 56/56/60 57/57/61 47/47/50
f 57/57/61 33/33/36 9/9/11
f 58/58/58 59/59/57 57/57/61
f 59/59/57 38/38/7 33/33/36
f 60/60/62 8/8/8 38/38/7
f 61/61/63 63/63/65 54/54/56
f 62/62/64 56/56/60 43/43/46
f 63/63/65 62/62/64 49/49/52
f 64/64/67 55/55/59 58/58/58
f 65/65/66 58/58/58 56/56/60
f 66/66/4 67/67/6 63/63/65
f 67/67/6 65/65/66 62/62/64
f 68/68/68 64/64/67 65/65/66
f 69/69/71 97/97/98 96/96/69
f 71/71/73 81/81/83 80/80/74
f 72/72/77 76/76/80 75/75/75
f 74/74/76 75/75/75 32/32/35
f 75/75/75 73/73/79 6/6/78
f 76/76/80 70/70/88 73/73/79
f 77/77/82 72/72/77 74/74/76
f 78/78/81 74/74/76 25/25/29
f 79/79/72 80/80/74 40/40/41
f 80/80/74 78/78/81 36/36/40
f 81/81/83 77/77/82 78/78/81
f 82/82/86 89/89/92 88/88/84
f 84/84/87 85/85/89 76/76/80
f 85/85/89 83/83/90 70/70/88
f 87/87/85 88/88/84 85/85/89
f 88/88/84 86/86/91 83/83/90
f 89/89/92 4/4/121 86/86/91
f 90/90/93 92/92/95 81/81/83
f 91/91/94 84/84/87 72/72/77
f 92/92/95 91/91/94 77/77/82
f 93/93/97 82/82/86 87/87/85
f 94/94/96 87/87/85 84/84/87
f 95/95/70 96/96/69 92/92/95
f 96/96/69 94/94/96 91/91/94
f 97/97/98 93/93/97 94/94/96
f 98/98/100 107/107/108 106/106/101
f 99/99/104 102/102/105 101/101/102
f 100/100/103 101/101/102 60/60/62
f 101/101/102 79/79/72 8/8/8
f 102/102/105 71/71/73 79/79/72
f 103/103/107 99/99/104 100/100/103
f 104/104/106 100/100/103 55/55/59
f 105/105/99 106/106/101 68/68/68
f 106/106/101 104/104/106 64/64/67
f 107/107/108 103/103/107 104/104/106
f 108/108/111 113/113/114 112/112/109
f 109/109/112 110/110/113 102/102/105
f 110/110/113 90/90/93 71/71/73
f 111/111/110 112/112/109 110/110/113
f 112/112/109 95/95/70 90/90/93
f 113/113/114 69/69/71 95/95/70
f 114/114/115 116/116/117 107/107/108
f 115/115/116 109/109/112 99/99/104
f 116/116/117 115/115/116 103/103/107
f 117/117/119 108/108/111 111/111/110
f 118/118/118 111/111/110 109/109/112
f 119/119/1 120/120/3 116/116/117
f 120/120/3 118/118/118 115/115/116
f 121/121/120 117/117/119 118/118/118
