# This file uses centimeters as units for non-parametric coordinates.

mtllib test.mtl
g default
v -9.399437 -0.000000 9.391146
v 10.070038 -0.000000 9.391146
v -9.399437 0.000000 -6.834316
v 10.070038 0.000000 -6.834316
vt 0.000000 0.000000
vt 1.000000 0.000000
vt 0.000000 0.833380
vt 1.000000 0.833380
vn 0.000000 1.000000 0.000000
vn 0.000000 1.000000 0.000000
vn 0.000000 1.000000 0.000000
vn 0.000000 1.000000 0.000000
s off
g MyPlane testGroup
usemtl phong1SG
f 1/1/1 2/2/2 4/4/3 3/3/4
g default
v 5.261181 -0.000000 8.294025
v 8.911821 -0.000000 8.294025
v 5.261181 3.522476 8.294025
v 8.911821 3.522476 8.294025
v 5.261181 3.522476 4.764048
v 8.911821 3.522476 4.764048
v 5.261181 -0.000000 4.764048
v 8.911821 -0.000000 4.764048
vt 0.375000 0.000000
vt 0.625000 0.000000
vt 0.375000 0.250000
vt 0.625000 0.250000
vt 0.375000 0.500000
vt 0.625000 0.500000
vt 0.375000 0.750000
vt 0.625000 0.750000
vt 0.375000 1.000000
vt 0.625000 1.000000
vt 0.875000 0.000000
vt 0.875000 0.250000
vt 0.125000 0.000000
vt 0.125000 0.250000
vn 0.000000 0.000000 1.000000
vn 0.000000 0.000000 1.000000
vn 0.000000 0.000000 1.000000
vn 0.000000 0.000000 1.000000
vn 0.000000 1.000000 0.000000
vn 0.000000 1.000000 0.000000
vn 0.000000 1.000000 0.000000
vn 0.000000 1.000000 0.000000
vn 0.000000 0.000000 -1.000000
vn 0.000000 0.000000 -1.000000
vn 0.000000 0.000000 -1.000000
vn 0.000000 0.000000 -1.000000
vn 0.000000 -1.000000 0.000000
vn 0.000000 -1.000000 0.000000
vn 0.000000 -1.000000 0.000000
vn 0.000000 -1.000000 0.000000
vn 1.000000 0.000000 0.000000
vn 1.000000 0.000000 0.000000
vn 1.000000 0.000000 0.000000
vn 1.000000 0.000000 0.000000
vn -1.000000 0.000000 0.000000
vn -1.000000 0.000000 0.000000
vn -1.000000 0.000000 0.000000
vn -1.000000 0.000000 0.000000
s off
g testGroup MyCube
usemtl phong1SG
f 5/5/5 6/6/6 8/8/7 7/7/8
f 7/7/9 8/8/10 10/10/11 9/9/12
f 9/9/13 10/10/14 12/12/15 11/11/16
f 11/11/17 12/12/18 6/14/19 5/13/20
f 6/6/21 12/15/22 10/16/23 8/8/24
f 11/17/25 5/5/26 7/7/27 9/18/28
